<?xml version="1.0" standalone="no"?>
<!DOCTYPE svg PUBLIC "-//W3C//DTD SVG 20010904//EN"
 "http://www.w3.org/TR/2001/REC-SVG-20010904/DTD/svg10.dtd">
<svg version="1.0" xmlns="http://www.w3.org/2000/svg"
 width="1980.000000pt" height="1100.000000pt" viewBox="0 0 1980.000000 1100.000000"
 preserveAspectRatio="xMidYMid meet">

<g transform="translate(0.000000,1100.000000) scale(0.100000,-0.100000)"
fill="#000000" stroke="none">
<path d="M11200 10915 c-172 -24 -373 -81 -495 -142 -149 -75 -153 -79 -1665
-1590 l-1476 -1474 -41 15 c-70 25 -242 64 -358 82 -152 23 -468 23 -630 0
-152 -22 -301 -57 -435 -102 -101 -34 -335 -143 -431 -200 l-46 -27 -94 75
c-307 247 -658 401 -1054 463 -141 22 -426 30 -560 16 -424 -46 -811 -198
-1155 -455 -109 -81 -322 -285 -416 -397 -228 -273 -377 -607 -445 -993 -11
-60 -21 -111 -23 -113 -2 -2 -54 -15 -116 -29 -404 -91 -775 -301 -1061 -601
-450 -472 -654 -959 -653 -1563 1 -358 72 -670 228 -995 190 -395 465 -715
812 -942 243 -159 565 -285 864 -337 219 -39 516 -31 773 20 71 15 130 25 131
23 2 -2 69 -101 150 -219 165 -242 238 -331 397 -484 259 -251 554 -450 879
-594 674 -299 1417 -379 2097 -226 636 142 1154 422 1631 882 l73 70 80 -34
c418 -176 874 -209 1344 -98 559 134 1055 474 1367 939 99 146 199 350 253
510 22 66 41 121 42 123 1 2 37 -25 80 -59 389 -311 830 -464 1468 -510 150
-11 509 -8 521 4 3 3 -3 43 -13 89 -14 67 -18 127 -18 303 0 242 10 306 75
472 93 243 301 458 538 558 147 62 239 80 407 80 130 0 160 -3 225 -23 262
-83 475 -267 552 -478 26 -71 36 -247 19 -339 -26 -140 -120 -269 -239 -327
-52 -26 -79 -32 -148 -36 -100 -5 -158 8 -208 50 -54 44 -79 100 -80 179 0 58
4 72 27 102 31 41 108 80 204 104 38 10 70 18 72 20 8 5 -34 112 -62 157 -39
62 -93 101 -175 126 -77 24 -147 25 -227 5 -272 -69 -458 -312 -456 -595 1
-184 86 -367 237 -511 177 -167 389 -251 634 -251 423 0 748 191 932 548 105
203 143 379 135 629 -18 531 -275 926 -752 1155 -384 184 -819 208 -1240 69
-125 -41 -329 -143 -460 -230 -137 -91 -307 -258 -388 -380 -114 -173 -204
-393 -251 -614 l-23 -110 -39 3 c-72 6 -238 43 -329 73 -125 42 -321 138 -440
216 -127 84 -309 264 -388 383 -120 184 -217 410 -253 597 -26 132 -24 356 5
501 67 341 209 610 451 853 230 231 520 390 809 444 234 43 596 1 791 -92 177
-85 310 -287 311 -475 1 -105 -19 -164 -80 -231 -45 -50 -97 -70 -194 -75
-102 -5 -110 -12 -110 -97 0 -68 38 -141 114 -214 136 -133 296 -176 497 -135
224 46 394 179 506 394 130 250 135 519 17 822 -22 57 -64 141 -93 188 -91
148 -267 313 -434 406 -35 20 -64 40 -64 46 0 18 105 169 171 245 202 234 514
410 859 484 151 33 428 33 580 0 406 -86 721 -271 889 -522 112 -166 270 -476
356 -696 l27 -71 117 55 c385 182 499 219 749 244 322 33 705 -86 1015 -313
104 -77 265 -240 340 -345 119 -167 203 -357 253 -569 26 -110 28 -135 29
-329 0 -196 -2 -217 -27 -316 -86 -337 -296 -668 -539 -849 -95 -70 -247 -149
-359 -186 -74 -24 -102 -27 -210 -28 -141 -1 -198 12 -314 71 -162 80 -275
179 -333 289 -44 85 -58 153 -58 289 0 99 4 133 24 193 76 234 277 361 437
276 73 -39 121 -81 150 -130 53 -90 17 -244 -81 -350 l-42 -44 52 -35 c91 -60
150 -79 245 -78 187 0 340 111 440 318 71 145 84 247 50 380 -56 220 -196 384
-434 511 -166 88 -303 124 -478 124 -290 0 -502 -93 -734 -324 -162 -162 -243
-293 -300 -485 -35 -117 -44 -338 -20 -491 47 -297 200 -577 443 -811 338
-325 731 -468 1108 -403 302 51 560 147 764 282 213 140 505 479 720 834 57
94 82 148 120 265 90 272 123 463 123 713 0 163 -18 315 -53 455 -118 472
-326 837 -660 1160 -182 177 -348 292 -580 404 -348 168 -620 234 -969 234
-197 0 -345 -16 -517 -58 l-91 -22 -75 111 c-150 221 -285 365 -491 521 -280
211 -515 325 -850 411 l-170 43 -1420 1419 c-1469 1467 -1453 1452 -1626 1545
-290 156 -714 229 -1060 182z m365 -716 c126 -17 224 -46 325 -95 l95 -46
1173 -1172 1173 -1172 -133 -48 c-549 -198 -1001 -590 -1267 -1102 l-42 -80
-77 9 c-110 12 -459 2 -572 -18 -701 -119 -1311 -561 -1619 -1173 -50 -100
-101 -222 -136 -329 -15 -46 -29 -83 -32 -83 -2 0 -55 37 -116 83 -257 192
-494 305 -791 378 -130 31 -309 59 -385 59 l-49 0 -5 218 c-3 162 -10 245 -26
327 -70 369 -206 680 -424 975 -69 92 -289 322 -375 391 l-42 34 1382 1381
c1314 1313 1386 1383 1451 1414 37 17 96 38 130 45 76 16 259 19 362 4z
m-7160 -2904 c121 -19 253 -58 350 -104 191 -91 442 -313 709 -628 43 -51 81
-93 83 -93 2 0 83 69 179 153 203 176 319 259 459 327 120 59 215 91 355 121
153 33 446 33 608 1 261 -52 477 -158 691 -337 264 -222 453 -526 516 -831 99
-485 -24 -989 -320 -1302 -267 -283 -549 -346 -917 -206 -187 71 -308 207
-353 395 -40 172 6 372 112 490 67 74 123 88 237 59 95 -24 153 -62 186 -120
22 -40 25 -57 25 -145 0 -88 -4 -107 -27 -158 l-27 -58 22 -8 c171 -63 342
-24 475 108 107 108 158 255 149 431 -8 162 -59 270 -187 400 -145 148 -349
233 -590 247 -184 10 -395 -44 -564 -144 -94 -56 -252 -207 -311 -297 -151
-232 -236 -514 -221 -729 14 -182 87 -383 209 -571 180 -275 460 -481 790
-580 158 -48 250 -60 437 -60 190 0 319 18 495 69 370 107 673 386 916 842 60
111 60 112 102 118 57 9 269 -11 375 -34 273 -60 524 -208 745 -440 145 -152
199 -239 257 -411 18 -52 54 -149 80 -215 26 -66 54 -151 61 -190 21 -105 18
-406 -4 -518 -54 -269 -184 -533 -360 -736 -211 -241 -534 -430 -851 -497
-274 -58 -601 -28 -818 74 -78 36 -506 267 -554 298 -22 15 -25 11 -124 -128
-169 -235 -298 -377 -485 -531 -379 -312 -848 -515 -1335 -579 -157 -20 -481
-15 -645 10 -467 72 -966 289 -1320 575 -103 83 -256 241 -329 340 -69 94
-161 282 -210 427 -87 264 -115 614 -66 815 58 233 253 449 531 588 153 77
305 103 487 86 196 -18 348 -79 460 -183 74 -69 138 -189 172 -320 45 -177 6
-350 -106 -475 -67 -74 -151 -113 -248 -114 -66 0 -81 3 -122 29 -89 56 -147
191 -111 260 23 44 95 107 160 138 l57 28 -18 30 c-30 52 -123 137 -178 164
-106 52 -230 29 -366 -69 -174 -125 -267 -316 -255 -527 9 -164 68 -290 192
-416 166 -168 378 -250 645 -248 170 1 254 19 388 84 249 120 424 292 517 508
113 261 126 575 34 856 -70 212 -178 394 -327 548 -185 191 -383 295 -685 360
-85 18 -135 22 -302 22 -173 1 -215 -2 -308 -22 -347 -74 -635 -231 -879 -479
-298 -301 -429 -571 -469 -961 -11 -101 -7 -301 7 -418 l7 -52 -99 -18 c-147
-28 -441 -26 -581 4 -222 48 -432 138 -600 258 -51 37 -143 119 -205 183 -312
322 -445 674 -424 1126 19 428 183 782 500 1082 272 257 607 395 961 395 188
0 315 -47 440 -164 50 -47 84 -89 111 -140 37 -69 39 -78 39 -163 0 -81 -3
-95 -29 -143 -40 -72 -124 -131 -213 -150 -37 -8 -38 -9 -36 -51 5 -104 90
-192 240 -247 69 -26 91 -29 193 -29 102 0 122 3 178 26 267 113 427 330 465
631 21 166 -26 381 -117 542 -172 300 -447 497 -820 586 -43 11 -80 20 -81 22
-6 6 52 185 83 258 138 327 410 619 732 784 174 89 339 137 537 156 110 10
320 3 438 -15z"/>
</g>
</svg>
