<?xml version="1.0" standalone="no"?>
<!DOCTYPE svg PUBLIC "-//W3C//DTD SVG 20010904//EN"
 "http://www.w3.org/TR/2001/REC-SVG-20010904/DTD/svg10.dtd">
<svg version="1.0" xmlns="http://www.w3.org/2000/svg"
 width="700.000000pt" height="1220.000000pt" viewBox="0 0 700.000000 1220.000000"
 preserveAspectRatio="xMidYMid meet">

<g transform="translate(0.000000,1220.000000) scale(0.100000,-0.100000)"
fill="#88ae43" stroke="88ae43">
<path d="M3492 12058 c-5 -7 -142 -231 -304 -498 -162 -267 -346 -568 -408
-670 -62 -102 -138 -228 -170 -280 -31 -52 -88 -147 -127 -210 -146 -238 -299
-490 -393 -645 -53 -88 -211 -347 -350 -575 -139 -228 -297 -487 -350 -575
-54 -88 -148 -243 -210 -345 -62 -102 -156 -257 -210 -345 -53 -88 -160 -263
-237 -390 -77 -126 -203 -334 -281 -462 -78 -127 -155 -260 -173 -295 -141
-280 -183 -642 -108 -933 27 -101 102 -259 166 -350 44 -61 245 -292 633 -729
58 -65 113 -130 122 -145 17 -24 18 -90 18 -992 0 -928 1 -969 20 -1043 63
-248 298 -490 570 -587 l65 -24 730 -5 c402 -3 731 -7 733 -8 1 -1 2 -356 2
-789 0 -887 -2 -864 72 -948 81 -92 196 -119 322 -75 66 22 146 66 146 79 0 5
-12 33 -27 62 l-28 53 0 811 0 810 765 5 c737 6 767 6 825 26 256 88 454 270
548 506 58 144 57 125 57 1168 l0 959 348 386 c191 213 373 421 405 463 279
368 288 936 23 1387 -54 92 -331 549 -681 1125 -109 179 -210 345 -225 370
-15 25 -91 151 -170 280 -79 129 -208 343 -288 475 -79 132 -182 301 -227 375
-45 74 -205 338 -355 585 -150 248 -349 576 -443 730 -94 154 -253 417 -355
585 -233 386 -424 690 -433 690 -3 0 -11 -6 -17 -12z m40 -905 c8 -10 24 -34
35 -53 11 -19 69 -116 130 -215 247 -406 402 -660 506 -830 60 -99 135 -223
167 -275 31 -52 81 -133 110 -180 29 -47 96 -157 150 -245 53 -88 116 -191
139 -230 24 -38 87 -142 141 -230 53 -88 140 -230 193 -316 122 -199 122 -196
101 -271 -47 -166 -238 -350 -424 -409 -93 -29 -202 -36 -272 -15 -31 9 -61
16 -66 16 -6 0 -16 -26 -22 -57 -39 -190 -107 -321 -223 -430 -63 -60 -143
-113 -169 -113 -17 0 -18 40 -18 910 0 989 -2 952 55 978 36 16 71 15 111 -4
39 -19 49 -46 40 -104 -8 -49 2 -55 63 -40 55 13 102 53 134 114 34 66 30 173
-9 256 -37 78 -101 147 -169 180 -46 23 -61 25 -195 25 -144 0 -146 0 -212
-33 -77 -38 -121 -84 -171 -180 -62 -119 -87 -252 -87 -459 0 -90 -3 -113 -14
-113 -8 0 -47 16 -87 35 -130 61 -223 79 -394 80 -167 0 -254 -15 -376 -66
-205 -84 -375 -266 -435 -464 -29 -93 -27 -326 3 -420 60 -189 236 -349 443
-401 90 -23 243 -15 323 16 132 52 229 192 235 340 3 63 0 84 -18 123 -27 57
-77 101 -139 122 -64 22 -81 20 -81 -10 0 -38 -38 -129 -64 -154 -52 -49 -176
-35 -248 29 -50 44 -68 89 -68 171 0 67 25 123 81 184 53 58 108 90 180 105
113 25 288 -34 417 -141 110 -91 200 -231 222 -348 6 -30 10 -212 10 -417 l0
-364 -32 0 c-19 0 -78 22 -136 50 l-102 49 -34 -67 c-89 -175 -326 -312 -541
-312 -87 0 -156 16 -240 55 -99 46 -148 85 -207 165 -28 39 -52 70 -53 70 -1
0 -20 -14 -41 -31 -95 -75 -274 -150 -400 -167 -76 -10 -165 3 -228 33 -93 44
-187 176 -236 328 -27 84 -23 120 23 196 19 31 98 162 177 291 79 129 232 381
340 560 381 628 538 886 620 1020 46 74 102 167 125 205 55 92 382 631 525
865 62 102 133 219 158 260 145 241 215 350 226 350 7 0 20 -8 28 -17z m2034
-3345 c108 -175 196 -319 392 -638 36 -58 81 -132 102 -165 242 -390 284 -462
315 -540 44 -109 55 -163 55 -263 0 -94 -21 -205 -56 -288 -22 -54 -90 -170
-131 -224 -62 -81 -304 -340 -319 -340 -11 0 -14 17 -14 74 0 41 -5 154 -10
252 -19 339 -44 429 -172 616 -109 159 -290 305 -452 364 -121 44 -214 57
-374 51 -173 -5 -240 -20 -371 -84 -75 -37 -111 -63 -185 -133 -178 -171 -247
-346 -233 -593 9 -174 66 -304 183 -421 122 -123 274 -186 445 -186 165 0 257
41 342 152 63 84 87 150 87 241 0 91 -21 139 -84 194 -47 42 -136 80 -156 68
-5 -3 -13 -23 -16 -44 -8 -52 -45 -121 -76 -144 -33 -25 -114 -33 -163 -17
-89 29 -140 114 -139 231 1 120 78 230 202 287 69 31 196 42 270 22 173 -47
342 -213 401 -394 28 -87 45 -215 38 -299 -4 -40 -7 -317 -7 -617 0 -407 -3
-541 -11 -533 -7 7 -24 41 -39 77 -68 160 -210 324 -370 428 -174 113 -257
141 -473 159 -167 14 -352 1 -457 -31 -36 -11 -68 -20 -72 -20 -5 0 -8 387 -8
859 l0 860 88 26 c162 50 276 117 385 228 108 112 193 253 247 412 l27 80 104
6 c250 15 431 111 576 307 30 39 58 72 62 72 5 0 35 -42 67 -92z m-4551 -885
c165 -231 405 -341 720 -330 75 3 156 12 190 21 45 12 203 83 275 123 3 2 41
-24 84 -57 135 -104 251 -147 421 -157 239 -14 434 69 608 258 l76 82 63 -27
c35 -15 73 -34 86 -42 l22 -14 0 -1021 c0 -852 -2 -1025 -14 -1053 -8 -19 -45
-80 -83 -137 -38 -57 -77 -121 -86 -141 -42 -91 -78 -233 -92 -371 -4 -39 -13
-71 -20 -73 -7 -3 -51 15 -99 40 -129 66 -236 89 -416 89 -162 0 -255 -15
-383 -65 -212 -81 -395 -273 -459 -478 -30 -100 -33 -331 -4 -424 71 -237 259
-403 511 -452 75 -15 98 -16 159 -6 185 31 332 173 364 352 20 107 -23 221
-100 268 -34 21 -125 48 -133 40 -3 -2 -9 -28 -15 -58 -21 -112 -73 -156 -175
-148 -151 13 -223 114 -195 276 14 81 46 139 103 186 91 75 184 97 308 72 181
-35 372 -184 460 -358 54 -107 59 -149 59 -535 0 -199 -4 -354 -9 -357 -5 -3
-319 -6 -698 -7 -770 -1 -719 -6 -819 72 -55 43 -123 132 -143 189 -9 26 -14
274 -18 960 -7 1212 1 1385 78 1665 72 263 187 403 399 488 93 37 185 50 314
45 89 -4 123 -10 174 -30 100 -41 171 -88 247 -163 115 -113 148 -205 134
-373 -9 -105 -42 -175 -110 -236 -99 -89 -214 -107 -319 -50 -66 36 -92 78
-93 154 -1 50 2 63 23 85 27 29 104 55 162 55 35 0 38 2 38 28 -1 39 -32 102
-71 141 -99 99 -242 95 -390 -12 -127 -91 -179 -190 -179 -341 0 -120 37 -229
112 -331 76 -103 209 -189 340 -220 37 -9 112 -15 183 -15 197 0 325 46 454
166 75 70 159 185 196 269 105 237 97 583 -20 814 -78 156 -217 288 -425 403
-172 96 -267 114 -540 105 -287 -10 -428 -55 -615 -195 -233 -174 -389 -417
-467 -729 -14 -60 -28 -93 -36 -93 -15 0 -27 12 -158 155 -228 252 -278 314
-321 400 -72 142 -101 359 -68 513 22 107 48 162 167 356 155 254 177 286 191
286 6 0 30 -26 52 -57z m3571 -2248 c178 -45 347 -172 415 -310 33 -67 34 -73
33 -185 -1 -140 -22 -205 -89 -274 -67 -70 -134 -99 -225 -100 -133 0 -210 56
-217 158 -7 93 33 132 153 148 43 6 80 12 82 14 12 9 -36 129 -64 163 -76 88
-210 96 -360 22 -103 -51 -151 -97 -193 -182 -40 -82 -54 -165 -41 -244 41
-236 219 -426 461 -491 85 -23 252 -23 339 -1 219 57 406 225 506 454 18 42
37 80 43 86 8 8 11 -132 13 -499 1 -280 2 -558 2 -619 1 -102 -1 -114 -28
-170 -37 -74 -124 -164 -196 -200 l-54 -27 -730 1 -731 1 0 713 c0 776 2 821
57 1017 32 117 109 287 153 338 81 96 255 185 400 206 52 8 209 -4 271 -19z"/>
</g>
</svg>
